#!OML:ASF C:\ViconDB\ViconDB\414\Spring2016\041811\Spring2016.ASF
:FULLY-SPECIFIED
:DEGREES
174
root 9.1304 19.0202 -9.97924 179.155 -33.1046 181.025
lowerback 0.432935 -3.50028 -5.92472
upperback -1.09093 -4.76552 -0.473408
thorax -0.92746 -2.34425 2.85946
lowerneck -14.6834 -2.75204 -14.0925
upperneck 26.7527 -7.25483 18.448
head 12.4474 -3.22413 8.4628
rclavicle -3.07122e-014 -7.15625e-015
rhumerus -36.9482 -18.3106 5.32196
rradius 30.6077
rwrist 38.0912
rhand -32.0189 -14.9299
rfingers 7.12502
rthumb -5.26701 -44.8445
lclavicle -3.07122e-014 -7.15625e-015
lhumerus -28.6662 -10.3127 11.9967
lradius 29.8022
lwrist -17.2015
lhand -29.7413 17.1147
lfingers 7.12502
lthumb -3.06758 47.0724
rfemur -29.1677 -187.976 -4.88109
rtibia 38.4262
rfoot -7.43997 -63.269
rtoes -17.2859
lfemur -5.04638 9.57264 -14.6069
ltibia 29.4831
lfoot -15.7268 10.2836
ltoes -17.8413
175
root 9.18653 19.1005 -9.99683 179.284 -30.4782 180.298
lowerback 0.326418 -3.35367 -6.26657
upperback -1.16204 -4.5795 -0.655877
thorax -0.948061 -2.25052 2.85778
lowerneck -14.7432 -2.58497 -14.1142
upperneck 26.9759 -7.05471 18.3744
head 12.5003 -3.16326 8.48025
rclavicle 1.1281e-014 7.95139e-015
rhumerus -36.9485 -17.4741 4.52281
rradius 31.0175
rwrist 37.2395
rhand -32.2693 -13.4319
rfingers 7.12502
rthumb -5.50871 -43.3403
lclavicle 1.1281e-014 7.95139e-015
lhumerus -29.2856 -10.1968 12.4547
lradius 29.5461
lwrist -17.0383
lhand -29.7686 17.0282
lfingers 7.12502
lthumb -3.09394 46.9855
rfemur -30.5467 -188.877 -4.60837
rtibia 39.0563
rfoot -7.99014 -63.9407
rtoes -15.6121
lfemur -4.32666 9.90362 -14.7066
ltibia 29.4343
lfoot -14.6078 10.4035
ltoes -18.0714
176
root 9.25144 19.175 -10.0125 179.358 -27.8125 179.678
lowerback 0.268377 -3.24803 -6.64611
upperback -1.27748 -4.4495 -0.678166
thorax -1.02183 -2.17986 3.04592
lowerneck -14.8787 -2.34178 -13.9792
upperneck 27.3185 -6.64458 17.9011
head 12.5485 -3.022 8.33672
rclavicle -8.99501e-015 2.06736e-014
rhumerus -36.7842 -17.0085 4.07814
rradius 31.4027
rwrist 37.3763
rhand -31.9838 -13.6903
rfingers 7.12502
rthumb -5.23312 -43.6057
lclavicle -8.99501e-015 2.06736e-014
lhumerus -30.1179 -9.82523 12.9526
lradius 29.1876
lwrist -17.3249
lhand -29.7424 17.2823
lfingers 7.12502
lthumb -3.06868 47.2399
rfemur -31.8835 -190.003 -4.33173
rtibia 39.6681
rfoot -7.46199 -64.7371
rtoes -14.2691
lfemur -3.81159 9.90603 -14.7005
ltibia 29.669
lfoot -14.6078 10.4035
ltoes -18.0714
177
root 9.3225 19.2404 -10.026 179.399 -25.0972 179.456
lowerback -0.105658 -3.07536 -6.52267
upperback -1.30485 -4.19998 -0.857125
thorax -0.887628 -2.06451 2.77363
lowerneck -14.9996 -2.03842 -13.3665
upperneck 27.4048 -6.34945 17.7075
head 12.5154 -2.85649 8.18325
rclavicle 8.99501e-015 -3.33958e-014
rhumerus -37.0143 -16.2522 3.31496
rradius 31.8555
rwrist 36.3018
rhand -31.5165 -13.7863
rfingers 7.12502
rthumb -4.78192 -43.7123
lclavicle 8.99501e-015 -3.33958e-014
lhumerus -30.5043 -9.67256 13.0764
lradius 28.9656
lwrist -16.7997
lhand -29.6309 17.6875
lfingers 7.12502
lthumb -2.96103 47.6467
rfemur -33.1011 -191.548 -3.75873
rtibia 40.2292
rfoot -5.93586 -66.0277
rtoes -10.4309
lfemur -3.68406 9.98852 -14.2276
ltibia 30.2291
lfoot -14.6078 10.4035
ltoes -18.0714
178
root 9.38785 19.284 -10.0414 179.677 -22.385 178.646
lowerback -0.604807 -2.9357 -6.92618
upperback -1.28486 -3.98735 -1.04854
thorax -0.595745 -1.9709 2.77214
lowerneck -15.3573 -1.83368 -13.2968
upperneck 27.7964 -6.08812 17.5698
head 12.6864 -2.75534 8.18212
rclavicle 8.90555e-014 2.46493e-014
rhumerus -36.9677 -16.0713 3.11789
rradius 32.057
rwrist 36.8637
rhand -30.9296 -13.4979
rfingers 7.12502
rthumb -4.21514 -43.436
lclavicle 8.90555e-014 2.46493e-014
lhumerus -31.0147 -9.22891 13.2603
lradius 28.715
lwrist -16.2037
lhand -29.5423 17.3615
lfingers 7.12502
lthumb -2.87542 47.3219
rfemur -34.3248 -193.237 -4.02012
rtibia 40.7289
rfoot -5.69942 -67.1358
rtoes -9.14468
lfemur -3.69048 10.136 -14.2955
ltibia 31.0535
lfoot -14.6078 10.4035
ltoes -18.0714
179
root 9.47682 19.3179 -10.0506 179.768 -19.6598 178.202
lowerback -0.98628 -2.79087 -7.17861
upperback -1.30178 -3.77224 -1.14834
thorax -0.412578 -1.87197 2.79211
lowerneck -15.5756 -1.69791 -13.6465
upperneck 28.0223 -5.93526 17.8411
head 12.8122 -2.71484 8.40855
rclavicle 1.47598e-014 1.90833e-014
rhumerus -36.9479 -15.5621 2.74522
rradius 32.3273
rwrist 36.4572
rhand -30.5403 -13.989
rfingers 7.12502
rthumb -3.83919 -43.9342
lclavicle 1.47598e-014 1.90833e-014
lhumerus -31.507 -8.96554 13.3041
lradius 28.5007
lwrist -15.836
lhand -29.2706 18.0183
lfingers 7.12502
lthumb -2.61306 47.982
rfemur -35.3364 -194.307 -3.8291
rtibia 41.1091
rfoot -4.82876 -68.2298
rtoes -9.68152
lfemur -3.83528 10.3624 -13.8325
ltibia 32.0681
lfoot -14.6078 10.4035
ltoes -18.0714
180
root 9.55822 19.3432 -10.0483 180.051 -17.0252 177.768
lowerback -1.55826 -2.67452 -7.2426
upperback -1.25356 -3.57555 -1.31959
thorax -0.0697894 -1.79148 2.62406
lowerneck -16.005 -1.49677 -13.3862
upperneck 28.1845 -5.60585 17.5839
head 12.884 -2.55343 8.31503
rclavicle 3.57315e-014 1.94809e-014
rhumerus -36.94 -15.6699 2.79258
rradius 32.3723
rwrist 37.3888
rhand -30.1096 -13.4364
rfingers 7.12502
rthumb -3.42332 -43.3886
lclavicle 3.57315e-014 1.94809e-014
lhumerus -31.8713 -8.70344 13.1983
lradius 28.3494
lwrist -15.1579
lhand -29.0382 18.4096
lfingers 7.12502
lthumb -2.38863 48.376
rfemur -36.0596 -195.493 -3.71221
rtibia 41.3686
rfoot -3.95326 -69.6509
rtoes -9.9409
lfemur -4.37276 10.2052 -13.4065
ltibia 33.194
lfoot -14.6078 10.4035
ltoes -18.0714
181
root 9.65829 19.3616 -10.0443 180.114 -14.3785 177.451
lowerback -1.76726 -2.54954 -7.47318
upperback -1.22364 -3.3963 -1.43252
thorax 0.065652 -1.7109 2.62922
lowerneck -16.3835 -1.24559 -13.1524
upperneck 28.3063 -5.23479 17.4355
head 12.9257 -2.36894 8.27652
rclavicle 2.73826e-014 -2.14687e-014
rhumerus -36.9268 -15.2209 2.54705
rradius 32.478
rwrist 37.3259
rhand -30.1777 -13.5268
rfingers 7.12502
rthumb -3.48905 -43.478
lclavicle 2.73826e-014 -2.14687e-014
lhumerus -32.1522 -8.54261 12.895
lradius 28.1207
lwrist -14.7568
lhand -28.7825 18.6413
lfingers 7.12502
lthumb -2.14166 48.6103
rfemur -36.7241 -196.231 -3.36922
rtibia 41.4662
rfoot -2.88863 -70.7935
rtoes -9.15049
lfemur -4.81147 9.91904 -12.6923
ltibia 34.395
lfoot -14.6078 10.4035
ltoes -18.0714
182
root 9.74629 19.3568 -10.0263 180.228 -11.6621 177.184
lowerback -1.94703 -2.36692 -7.50273
upperback -1.20099 -3.14606 -1.5763
thorax 0.157475 -1.59469 2.49658
lowerneck -16.7993 -1.02043 -12.7103
upperneck 28.3603 -4.9084 17.1754
head 12.9518 -2.18611 8.13934
rclavicle 3.91109e-014 1.27222e-014
rhumerus -36.8474 -14.6279 2.16252
rradius 32.7801
rwrist 35.4652
rhand -29.6723 -14.7093
rfingers 7.12502
rthumb -3.00098 -44.6679
lclavicle 3.91109e-014 1.27222e-014
lhumerus -32.3094 -8.78818 12.5509
lradius 27.9718
lwrist -13.9031
lhand -28.5385 19.1246
lfingers 7.12502
lthumb -1.90602 49.0958
rfemur -37.0718 -197.049 -3.06441
rtibia 41.3835
rfoot -1.15927 -72.0218
rtoes -7.40329
lfemur -5.359 9.39133 -11.9864
ltibia 35.6957
lfoot -14.6078 10.4035
ltoes -18.0714
183
root 9.83982 19.3375 -10.0053 180.163 -8.92508 177.054
lowerback -1.91143 -2.19934 -7.50513
upperback -1.08418 -2.92712 -1.70789
thorax 0.229689 -1.4939 2.36817
lowerneck -17.3728 -0.759871 -12.2375
upperneck 28.3721 -4.52333 16.9752
head 12.9881 -1.95507 8.03383
rclavicle -2.43511e-015 -3.65764e-014
rhumerus -36.8221 -14.6923 2.29897
rradius 32.7339
rwrist 36.2353
rhand -29.3493 -14.7182
rfingers 7.12502
rthumb -2.68907 -44.681
lclavicle -2.43511e-015 -3.65764e-014
lhumerus -32.4417 -8.68772 11.8933
lradius 27.7659
lwrist -13.5633
lhand -28.3071 18.9714
lfingers 7.12502
lthumb -1.68248 48.9445
rfemur -37.3003 -197.62 -2.58556
rtibia 41.0882
rfoot -1.38943 -73.1158
rtoes -6.14175
lfemur -5.74447 8.65766 -11.0213
ltibia 37.0899
lfoot -14.6078 10.4035
ltoes -18.0714
184
root 9.92748 19.2968 -9.9784 180.224 -6.33947 176.975
lowerback -1.85568 -2.10188 -7.59093
upperback -1.04875 -2.80371 -1.72318
thorax 0.226004 -1.43462 2.40534
lowerneck -17.7855 -0.609904 -12.0569
upperneck 28.2156 -4.28181 16.9979
head 12.9632 -1.80071 8.04247
rclavicle 1.25483e-014 -9.54166e-015
rhumerus -36.8678 -14.7151 2.57098
rradius 32.9164
rwrist 36.153
rhand -29.0239 -14.3219
rfingers 7.12502
rthumb -2.37476 -44.2884
lclavicle 1.25483e-014 -9.54166e-015
lhumerus -32.6944 -8.78559 11.3062
lradius 27.5555
lwrist -13.2649
lhand -28.2192 19.3252
lfingers 7.12502
lthumb -1.59761 49.299
rfemur -37.2111 -198.812 -2.18979
rtibia 40.5035
rfoot -5.14765 -74.7081
rtoes -5.66629
lfemur -6.27211 7.73872 -10.0026
ltibia 38.6385
lfoot -14.6078 10.4035
ltoes -18.0714
